<?xml version="1.0" encoding="UTF-8"?>
<svg id="Capa_1" data-name="Capa 1" xmlns="http://www.w3.org/2000/svg" viewBox="0 0 1920 821.04">
  <defs>
    <style>
      .cls-1 {
        fill: #d4a853;
      }
    </style>
  </defs>
  <path class="cls-1" d="M1783.5,424.41c-7.55-19.37-18.26-35.9-32.13-49.57-13.88-13.66-30.5-24.27-49.88-31.82-19.38-7.54-40.91-11.32-64.56-11.32s-45.29,3.78-64.87,11.32c-19.58,7.55-36.32,18.16-50.18,31.82-13.88,13.67-24.58,30.2-32.13,49.57-7.55,19.38-11.32,40.91-11.32,64.56s3.77,45.29,11.32,64.87c7.54,19.58,18.25,36.32,32.13,50.18,13.87,13.87,30.6,24.58,50.18,32.13,19.58,7.54,41.2,11.32,64.87,11.32,37.12,0,68.64-8.97,94.55-26.93,25.9-17.95,43.96-42.43,54.16-73.44h-80.17c-15.1,22.03-38.15,33.05-69.15,33.05-22.03,0-40.19-5.81-54.47-17.44-14.29-11.62-23.47-28.04-27.54-49.26h239.29c.4-4.07.71-8.05.92-11.93.2-3.87.31-8.05.31-12.55,0-23.66-3.78-45.18-11.32-64.56ZM1559.82,446.14c6.52-15.09,16.31-26.72,29.38-34.88,13.05-8.16,28.76-12.24,47.12-12.24s34.17,4.08,47.43,12.24c13.25,8.17,23.15,19.79,29.68,34.88h-153.61Z"/>
  <path class="cls-1" d="M810.98,427.01c-7.04-18.96-17.4-35.66-30.81-49.65-13.45-14-29.99-25.26-49.1-33.39-19.16-8.17-41.17-12.28-65.45-12.28s-46.29,4.1-65.45,12.28c-19.12,8.13-35.66,19.39-49.07,33.39-13.45,14-23.81,30.69-30.85,49.65-7,18.92-10.56,39.33-10.56,60.6s3.56,42.11,10.56,60.87c7.04,18.77,17.4,35.38,30.85,49.38,13.41,14,29.95,25.22,49.07,33.39,19.16,8.13,41.17,12.28,65.45,12.28s46.88-4.14,66.03-12.28c19.12-8.13,35.54-19.39,48.79-33.39,13.25-14,23.5-30.61,30.53-49.38,7-18.77,10.56-39.25,10.56-60.87s-3.56-41.64-10.56-60.6ZM732.75,518.88c-3.13,9.97-7.9,18.65-14.11,25.88-6.26,7.23-13.88,13.06-22.68,17.36-8.8,4.3-19,6.49-30.34,6.49s-21.54-2.19-30.34-6.49c-8.8-4.3-16.34-10.13-22.36-17.36-6.06-7.23-10.71-15.91-13.84-25.88-3.09-9.89-4.69-20.41-4.69-31.28s1.6-21.31,4.69-31c3.13-9.73,7.86-18.38,14.11-25.61,6.25-7.19,13.88-13.06,22.68-17.36,8.8-4.3,18.84-6.49,29.75-6.49s21.54,2.19,30.34,6.49c8.8,4.3,16.42,10.16,22.68,17.36,6.22,7.23,10.99,15.87,14.11,25.61,3.09,9.73,4.69,20.13,4.69,31s-1.6,21.39-4.69,31.28Z"/>
  <polygon class="cls-1" points="1131.8 331.69 1024.45 330.53 981.85 402.87 932.26 330.53 824.91 331.69 924.68 476.38 813.24 638 920.59 638.58 974.27 548.15 1036.12 638.58 1143.47 638.58 1032.03 476.38 1131.8 331.69"/>
  <polygon class="cls-1" points="431.71 295.13 487.11 295.13 487.11 237.85 544.38 237.85 544.38 182.45 487.11 182.45 487.11 125.18 431.71 125.18 431.71 182.45 374.44 182.45 374.44 237.85 431.71 237.85 431.71 295.13"/>
  <polygon class="cls-1" points="341.92 492.23 229.41 182.19 125.18 182.19 284.13 620.42 388.44 620.42 356.01 531.04 433.84 531.04 506.14 331.69 402.35 331.69 341.92 492.23"/>
  <polygon class="cls-1" points="1377.92 331.77 1319.16 493.38 1260.43 331.69 1156.14 331.69 1228.44 531.04 1305.77 531.05 1245.77 695.86 1350.08 695.86 1481.89 331.77 1377.92 331.77"/>
</svg>